<svg width="42" height="42" viewBox="0 0 42 42" fill="none" xmlns="http://www.w3.org/2000/svg">
<path d="M20.9998 33.3775C18.5518 33.3775 16.1587 32.6515 14.1233 31.2915C12.0878 29.9314 10.5013 27.9983 9.5645 25.7366C8.62768 23.4749 8.38256 20.9862 8.86015 18.5852C9.33774 16.1842 10.5166 13.9788 12.2476 12.2477C13.9786 10.5167 16.1841 9.33786 18.5851 8.86027C20.9861 8.38268 23.4748 8.6278 25.7365 9.56462C27.9982 10.5014 29.9313 12.0879 31.2914 14.1234C32.6514 16.1588 33.3773 18.5519 33.3773 21C33.3736 24.2815 32.0683 27.4276 29.7479 29.748C27.4275 32.0685 24.2814 33.3737 20.9998 33.3775V33.3775ZM20.9998 9.75758C18.7763 9.75758 16.6027 10.4169 14.7539 11.6523C12.9051 12.8876 11.4641 14.6434 10.6132 16.6977C9.76232 18.752 9.53968 21.0124 9.97347 23.1932C10.4073 25.374 11.478 27.3772 13.0503 28.9495C14.6225 30.5218 16.6257 31.5925 18.8066 32.0263C20.9874 32.4601 23.2478 32.2375 25.3021 31.3866C27.3564 30.5357 29.1122 29.0947 30.3475 27.2459C31.5829 25.3971 32.2422 23.2235 32.2422 21C32.2388 18.0194 31.0532 15.1618 28.9456 13.0542C26.838 10.9466 23.9804 9.76103 20.9998 9.75758Z" fill="white"/>
<path d="M21 30.4443C19.1321 30.4443 17.3061 29.8904 15.753 28.8527C14.1999 27.8149 12.9894 26.3399 12.2745 24.6142C11.5597 22.8885 11.3727 20.9895 11.7371 19.1575C12.1015 17.3255 13.001 15.6427 14.3218 14.3218C15.6426 13.001 17.3255 12.1016 19.1575 11.7371C20.9895 11.3727 22.8884 11.5598 24.6142 12.2746C26.3399 12.9894 27.8149 14.1999 28.8526 15.753C29.8904 17.3061 30.4443 19.1321 30.4443 21C30.4414 23.5039 29.4455 25.9045 27.675 27.675C25.9044 29.4455 23.5039 30.4415 21 30.4443V30.4443ZM21 12.6908C19.3566 12.6908 17.7501 13.1781 16.3836 14.0912C15.0172 15.0042 13.9522 16.3019 13.3233 17.8202C12.6944 19.3385 12.5298 21.0092 12.8504 22.621C13.171 24.2329 13.9624 25.7134 15.1245 26.8755C16.2865 28.0375 17.7671 28.8289 19.3789 29.1495C20.9908 29.4701 22.6615 29.3056 24.1798 28.6767C25.6981 28.0478 26.9958 26.9828 27.9088 25.6163C28.8218 24.2499 29.3092 22.6434 29.3092 21C29.3066 18.797 28.4304 16.6851 26.8726 15.1273C25.3149 13.5696 23.2029 12.6934 21 12.6908V12.6908Z" fill="white"/>
<path d="M21.9454 21.1817H19.0588C18.9083 21.1817 18.7639 21.1219 18.6575 21.0154C18.551 20.909 18.4912 20.7646 18.4912 20.6141V15.9742C18.4912 15.8237 18.551 15.6793 18.6575 15.5729C18.7639 15.4665 18.9083 15.4067 19.0588 15.4067H21.9454C22.328 15.4013 22.7079 15.472 23.0629 15.6147C23.418 15.7574 23.7411 15.9693 24.0135 16.2379C24.286 16.5066 24.5023 16.8267 24.65 17.1797C24.7977 17.5327 24.8737 17.9115 24.8737 18.2942C24.8737 18.6768 24.7977 19.0556 24.65 19.4086C24.5023 19.7616 24.286 20.0817 24.0135 20.3504C23.7411 20.6191 23.418 20.8309 23.0629 20.9736C22.7079 21.1163 22.328 21.187 21.9454 21.1817V21.1817ZM19.6264 20.0465H21.9454C22.1782 20.0507 22.4095 20.0085 22.6258 19.9223C22.8421 19.8361 23.039 19.7077 23.2051 19.5446C23.3712 19.3814 23.5031 19.1868 23.5932 18.9721C23.6832 18.7575 23.7296 18.527 23.7296 18.2942C23.7296 18.0613 23.6832 17.8309 23.5932 17.6162C23.5031 17.4015 23.3712 17.2069 23.2051 17.0437C23.039 16.8806 22.8421 16.7522 22.6258 16.666C22.4095 16.5798 22.1782 16.5376 21.9454 16.5418H19.6264V20.0465Z" fill="white"/>
<path d="M22.6827 25.8243H19.0588C18.9083 25.8243 18.7639 25.7645 18.6575 25.6581C18.551 25.5517 18.4912 25.4073 18.4912 25.2568V20.6141C18.4912 20.4635 18.551 20.3192 18.6575 20.2127C18.7639 20.1063 18.9083 20.0465 19.0588 20.0465H22.6827C23.4486 20.0465 24.1831 20.3508 24.7247 20.8923C25.2663 21.4339 25.5705 22.1684 25.5705 22.9343C25.5705 23.7002 25.2663 24.4347 24.7247 24.9763C24.1831 25.5178 23.4486 25.8221 22.6827 25.8221V25.8243ZM19.6264 24.6892H22.6827C23.1476 24.6892 23.5933 24.5046 23.922 24.1759C24.2507 23.8472 24.4354 23.4014 24.4354 22.9366C24.4354 22.4717 24.2507 22.0259 23.922 21.6973C23.5933 21.3686 23.1476 21.1839 22.6827 21.1839H19.6264V24.6892Z" fill="white"/>
<path d="M19.0588 16.5417H18.2301C18.0796 16.5417 17.9352 16.4819 17.8288 16.3755C17.7224 16.2691 17.6626 16.1247 17.6626 15.9742C17.6626 15.8237 17.7224 15.6793 17.8288 15.5729C17.9352 15.4664 18.0796 15.4066 18.2301 15.4066H19.0588C19.2093 15.4066 19.3537 15.4664 19.4601 15.5729C19.5666 15.6793 19.6264 15.8237 19.6264 15.9742C19.6264 16.1247 19.5666 16.2691 19.4601 16.3755C19.3537 16.4819 19.2093 16.5417 19.0588 16.5417Z" fill="white"/>
<path d="M19.5244 16.5418C19.3739 16.5418 19.2296 16.482 19.1231 16.3755C19.0167 16.2691 18.9569 16.1247 18.9569 15.9742V14.9299C18.9569 14.7793 19.0167 14.635 19.1231 14.5285C19.2296 14.4221 19.3739 14.3623 19.5244 14.3623C19.675 14.3623 19.8193 14.4221 19.9258 14.5285C20.0322 14.635 20.092 14.7793 20.092 14.9299V15.9742C20.092 16.1247 20.0322 16.2691 19.9258 16.3755C19.8193 16.482 19.675 16.5418 19.5244 16.5418Z" fill="white"/>
<path d="M21.3317 16.5418C21.1812 16.5418 21.0368 16.482 20.9304 16.3755C20.824 16.2691 20.7642 16.1247 20.7642 15.9742V14.9299C20.7642 14.7793 20.824 14.635 20.9304 14.5285C21.0368 14.4221 21.1812 14.3623 21.3317 14.3623C21.4823 14.3623 21.6266 14.4221 21.7331 14.5285C21.8395 14.635 21.8993 14.7793 21.8993 14.9299V15.9742C21.8993 16.1247 21.8395 16.2691 21.7331 16.3755C21.6266 16.482 21.4823 16.5418 21.3317 16.5418Z" fill="white"/>
<path d="M19.5244 26.8658C19.3739 26.8658 19.2296 26.806 19.1231 26.6996C19.0167 26.5931 18.9569 26.4488 18.9569 26.2983V25.2568C18.9569 25.1062 19.0167 24.9619 19.1231 24.8554C19.2296 24.749 19.3739 24.6892 19.5244 24.6892C19.675 24.6892 19.8193 24.749 19.9258 24.8554C20.0322 24.9619 20.092 25.1062 20.092 25.2568V26.3005C20.0914 26.4507 20.0313 26.5944 19.925 26.7004C19.8186 26.8063 19.6746 26.8658 19.5244 26.8658Z" fill="white"/>
<path d="M21.3317 26.8658C21.1812 26.8658 21.0368 26.806 20.9304 26.6996C20.824 26.5931 20.7642 26.4488 20.7642 26.2983V25.2568C20.7642 25.1062 20.824 24.9619 20.9304 24.8554C21.0368 24.749 21.1812 24.6892 21.3317 24.6892C21.4823 24.6892 21.6266 24.749 21.7331 24.8554C21.8395 24.9619 21.8993 25.1062 21.8993 25.2568V26.3005C21.8987 26.4507 21.8386 26.5944 21.7323 26.7004C21.6259 26.8063 21.4819 26.8658 21.3317 26.8658Z" fill="white"/>
<path d="M19.0588 25.8244H18.2301C18.0796 25.8244 17.9352 25.7646 17.8288 25.6581C17.7224 25.5517 17.6626 25.4073 17.6626 25.2568C17.6626 25.1063 17.7224 24.9619 17.8288 24.8554C17.9352 24.749 18.0796 24.6892 18.2301 24.6892H19.0588C19.2093 24.6892 19.3537 24.749 19.4601 24.8554C19.5666 24.9619 19.6264 25.1063 19.6264 25.2568C19.6264 25.4073 19.5666 25.5517 19.4601 25.6581C19.3537 25.7646 19.2093 25.8244 19.0588 25.8244Z" fill="white"/>
<path d="M21 9.75758C20.8495 9.75758 20.7051 9.69778 20.5987 9.59134C20.4922 9.4849 20.4324 9.34054 20.4324 9.19001V5.25336C20.4324 5.10283 20.4922 4.95847 20.5987 4.85203C20.7051 4.74559 20.8495 4.68579 21 4.68579C21.1505 4.68579 21.2949 4.74559 21.4013 4.85203C21.5078 4.95847 21.5676 5.10283 21.5676 5.25336V9.19001C21.5676 9.34054 21.5078 9.4849 21.4013 9.59134C21.2949 9.69778 21.1505 9.75758 21 9.75758Z" fill="white"/>
<path d="M20.9997 5.82097C20.5363 5.82097 20.0833 5.68356 19.698 5.42612C19.3127 5.16868 19.0124 4.80276 18.8351 4.37465C18.6578 3.94654 18.6114 3.47545 18.7018 3.02097C18.7922 2.56649 19.0153 2.14902 19.343 1.82136C19.6707 1.49369 20.0881 1.27055 20.5426 1.18015C20.9971 1.08975 21.4682 1.13615 21.8963 1.31348C22.3244 1.49081 22.6903 1.7911 22.9477 2.1764C23.2052 2.56169 23.3426 3.01467 23.3426 3.47805C23.3418 4.0992 23.0948 4.6947 22.6555 5.13392C22.2163 5.57314 21.6208 5.82022 20.9997 5.82097ZM20.9997 2.27027C20.7608 2.27027 20.5273 2.3411 20.3287 2.47382C20.1301 2.60653 19.9753 2.79516 19.8838 3.01585C19.7924 3.23655 19.7685 3.47939 19.8151 3.71368C19.8617 3.94797 19.9767 4.16317 20.1457 4.33208C20.3146 4.501 20.5298 4.61603 20.7641 4.66263C20.9983 4.70923 21.2412 4.68531 21.4619 4.5939C21.6826 4.50248 21.8712 4.34768 22.0039 4.14906C22.1366 3.95044 22.2075 3.71693 22.2075 3.47805C22.2072 3.15782 22.0798 2.85079 21.8534 2.62435C21.6269 2.39791 21.3199 2.27057 20.9997 2.27027V2.27027Z" fill="white"/>
<path d="M21 37.3142C20.8495 37.3142 20.7051 37.2544 20.5987 37.148C20.4922 37.0415 20.4324 36.8972 20.4324 36.7467V32.81C20.4324 32.6595 20.4922 32.5151 20.5987 32.4087C20.7051 32.3022 20.8495 32.2424 21 32.2424C21.1505 32.2424 21.2949 32.3022 21.4013 32.4087C21.5078 32.5151 21.5676 32.6595 21.5676 32.81V36.7467C21.5676 36.8972 21.5078 37.0415 21.4013 37.148C21.2949 37.2544 21.1505 37.3142 21 37.3142Z" fill="white"/>
<path d="M20.9997 40.8649C20.5363 40.8649 20.0833 40.7275 19.698 40.47C19.3127 40.2126 19.0124 39.8467 18.8351 39.4186C18.6578 38.9905 18.6114 38.5194 18.7018 38.0649C18.7922 37.6104 19.0153 37.193 19.343 36.8653C19.6707 36.5376 20.0881 36.3145 20.5426 36.2241C20.9971 36.1337 21.4682 36.1801 21.8963 36.3574C22.3244 36.5348 22.6903 36.835 22.9477 37.2203C23.2052 37.6056 23.3426 38.0586 23.3426 38.522C23.3418 39.1431 23.0948 39.7386 22.6555 40.1778C22.2163 40.6171 21.6208 40.8641 20.9997 40.8649ZM20.9997 37.3142C20.7608 37.3142 20.5273 37.385 20.3287 37.5178C20.1301 37.6505 19.9753 37.8391 19.8838 38.0598C19.7924 38.2805 19.7685 38.5233 19.8151 38.7576C19.8617 38.9919 19.9767 39.2071 20.1457 39.376C20.3146 39.5449 20.5298 39.66 20.7641 39.7066C20.9983 39.7532 21.2412 39.7292 21.4619 39.6378C21.6826 39.5464 21.8712 39.3916 22.0039 39.193C22.1366 38.9944 22.2075 38.7609 22.2075 38.522C22.2072 38.2018 22.0798 37.8947 21.8534 37.6683C21.6269 37.4419 21.3199 37.3145 20.9997 37.3142Z" fill="white"/>
<path d="M36.7467 21.5675H32.8101C32.6595 21.5675 32.5152 21.5077 32.4087 21.4013C32.3023 21.2948 32.2425 21.1505 32.2425 20.9999C32.2425 20.8494 32.3023 20.7051 32.4087 20.5986C32.5152 20.4922 32.6595 20.4324 32.8101 20.4324H36.7467C36.8972 20.4324 37.0416 20.4922 37.148 20.5986C37.2545 20.7051 37.3143 20.8494 37.3143 20.9999C37.3143 21.1505 37.2545 21.2948 37.148 21.4013C37.0416 21.5077 36.8972 21.5675 36.7467 21.5675Z" fill="white"/>
<path d="M38.5214 23.3429C38.0581 23.3429 37.6051 23.2055 37.2198 22.9481C36.8345 22.6906 36.5342 22.3247 36.3569 21.8966C36.1795 21.4685 36.1331 20.9974 36.2235 20.5429C36.3139 20.0885 36.5371 19.671 36.8648 19.3433C37.1924 19.0157 37.6099 18.7925 38.0644 18.7021C38.5188 18.6117 38.9899 18.6581 39.418 18.8354C39.8461 19.0128 40.2121 19.3131 40.4695 19.6984C40.7269 20.0837 40.8643 20.5366 40.8643 21C40.8636 21.6212 40.6165 22.2167 40.1773 22.6559C39.7381 23.0951 39.1426 23.3422 38.5214 23.3429ZM38.5214 19.7922C38.2826 19.7922 38.049 19.8631 37.8504 19.9958C37.6518 20.1285 37.497 20.3171 37.4056 20.5378C37.3142 20.7585 37.2903 21.0014 37.3369 21.2356C37.3835 21.4699 37.4985 21.6851 37.6674 21.854C37.8363 22.023 38.0515 22.138 38.2858 22.1846C38.5201 22.2312 38.7629 22.2073 38.9836 22.1159C39.2043 22.0244 39.393 21.8696 39.5257 21.671C39.6584 21.4724 39.7292 21.2389 39.7292 21C39.7289 20.6798 39.6016 20.3728 39.3751 20.1463C39.1487 19.9199 38.8417 19.7925 38.5214 19.7922Z" fill="white"/>
<path d="M9.1901 21.5675H5.25345C5.10292 21.5675 4.95856 21.5077 4.85212 21.4013C4.74568 21.2948 4.68588 21.1505 4.68588 20.9999C4.68588 20.8494 4.74568 20.7051 4.85212 20.5986C4.95856 20.4922 5.10292 20.4324 5.25345 20.4324H9.1901C9.34063 20.4324 9.48499 20.4922 9.59143 20.5986C9.69787 20.7051 9.75767 20.8494 9.75767 20.9999C9.75767 21.1505 9.69787 21.2948 9.59143 21.4013C9.48499 21.5077 9.34063 21.5675 9.1901 21.5675Z" fill="white"/>
<path d="M3.47796 23.3429C3.01457 23.3429 2.5616 23.2055 2.1763 22.9481C1.79101 22.6906 1.49072 22.3247 1.31339 21.8966C1.13606 21.4685 1.08966 20.9974 1.18006 20.5429C1.27046 20.0885 1.4936 19.671 1.82127 19.3433C2.14893 19.0157 2.5664 18.7925 3.02088 18.7021C3.47536 18.6117 3.94644 18.6581 4.37456 18.8354C4.80267 19.0128 5.16858 19.3131 5.42603 19.6984C5.68347 20.0837 5.82088 20.5366 5.82088 21C5.82013 21.6212 5.57304 22.2167 5.13383 22.6559C4.69461 23.0951 4.09911 23.3422 3.47796 23.3429ZM3.47796 19.7922C3.23908 19.7922 3.00557 19.8631 2.80695 19.9958C2.60833 20.1285 2.45353 20.3171 2.36211 20.5378C2.2707 20.7585 2.24678 21.0014 2.29338 21.2356C2.33999 21.4699 2.45502 21.6851 2.62393 21.854C2.79284 22.023 3.00805 22.138 3.24233 22.1846C3.47662 22.2312 3.71947 22.2073 3.94016 22.1159C4.16085 22.0244 4.34948 21.8696 4.4822 21.671C4.61491 21.4724 4.68574 21.2389 4.68574 21C4.68544 20.6798 4.5581 20.3728 4.33166 20.1463C4.10522 19.9199 3.79819 19.7925 3.47796 19.7922Z" fill="white"/>
<path d="M11.1812 34.6943H6.64972C6.49919 34.6943 6.35483 34.6345 6.24839 34.5281C6.14195 34.4216 6.08215 34.2773 6.08215 34.1267C6.08215 33.9762 6.14195 33.8319 6.24839 33.7254C6.35483 33.619 6.49919 33.5592 6.64972 33.5592H10.8684L13.1387 29.9177C13.2183 29.7897 13.3455 29.6986 13.4923 29.6645C13.6391 29.6303 13.7934 29.6558 13.9214 29.7355C14.0493 29.8151 14.1404 29.9423 14.1746 30.0891C14.2087 30.2358 14.1832 30.3902 14.1036 30.5181L11.6676 34.427C11.6162 34.5095 11.5445 34.5774 11.4593 34.6242C11.3741 34.671 11.2784 34.6951 11.1812 34.6943V34.6943Z" fill="white"/>
<path d="M4.87507 36.4696C4.41171 36.4695 3.95878 36.332 3.57357 36.0745C3.18835 35.817 2.88814 35.451 2.7109 35.0229C2.53365 34.5948 2.48734 34.1237 2.5778 33.6693C2.66827 33.2149 2.89146 32.7974 3.21914 32.4698C3.54683 32.1422 3.9643 31.9191 4.41876 31.8288C4.87323 31.7384 5.34428 31.7849 5.77236 31.9622C6.20044 32.1396 6.56632 32.4399 6.82374 32.8251C7.08116 33.2104 7.21855 33.6634 7.21855 34.1267C7.21795 34.748 6.97084 35.3437 6.53146 35.783C6.09209 36.2222 5.49636 36.4692 4.87507 36.4696ZM4.87507 32.9189C4.63621 32.9191 4.40276 32.99 4.20421 33.1228C4.00567 33.2556 3.85095 33.4442 3.75963 33.6649C3.6683 33.8856 3.64446 34.1285 3.69113 34.3627C3.73779 34.597 3.85287 34.8121 4.0218 34.981C4.19074 35.1498 4.40595 35.2648 4.64022 35.3113C4.87449 35.3579 5.1173 35.3339 5.33797 35.2425C5.55863 35.1511 5.74722 34.9963 5.87991 34.7977C6.0126 34.5991 6.08342 34.3656 6.08342 34.1267C6.08312 33.8064 5.9557 33.4993 5.72913 33.2728C5.50257 33.0464 5.1954 32.9191 4.87507 32.9189V32.9189Z" fill="white"/>
<path d="M13.6217 12.3498C13.5252 12.3499 13.4303 12.3254 13.3458 12.2786C13.2614 12.2319 13.1903 12.1643 13.1393 12.0824L10.869 8.44092H6.64972C6.49919 8.44092 6.35483 8.38112 6.24839 8.27468C6.14195 8.16825 6.08215 8.02388 6.08215 7.87335C6.08215 7.72283 6.14195 7.57846 6.24839 7.47202C6.35483 7.36558 6.49919 7.30579 6.64972 7.30579H11.1812C11.2776 7.30575 11.3724 7.33027 11.4567 7.37704C11.541 7.42382 11.612 7.49129 11.663 7.57311L14.099 11.4819C14.1524 11.5676 14.182 11.6659 14.1848 11.7667C14.1875 11.8676 14.1633 11.9673 14.1147 12.0557C14.0661 12.1441 13.9948 12.218 13.9081 12.2697C13.8215 12.3213 13.7226 12.349 13.6217 12.3498Z" fill="white"/>
<path d="M4.87507 10.2162C4.41171 10.2161 3.95878 10.0786 3.57357 9.8211C3.18835 9.56359 2.88814 9.19764 2.7109 8.76952C2.53365 8.3414 2.48734 7.87033 2.5778 7.41589C2.66827 6.96144 2.89146 6.54403 3.21914 6.21642C3.54683 5.88881 3.9643 5.66573 4.41876 5.57537C4.87323 5.48502 5.34428 5.53145 5.77236 5.70879C6.20044 5.88614 6.56632 6.18644 6.82374 6.57172C7.08116 6.957 7.21855 7.40995 7.21855 7.87331C7.21795 8.49461 6.97084 9.09028 6.53146 9.52955C6.09209 9.96881 5.49636 10.2158 4.87507 10.2162V10.2162ZM4.87507 6.66553C4.63621 6.66564 4.40276 6.73657 4.20421 6.86936C4.00567 7.00214 3.85095 7.19081 3.75963 7.41151C3.6683 7.63221 3.64446 7.87504 3.69113 8.10929C3.73779 8.34354 3.85287 8.55869 4.0218 8.72755C4.19074 8.8964 4.40595 9.01138 4.64022 9.05793C4.87449 9.10449 5.1173 9.08054 5.33797 8.98911C5.55863 8.89768 5.74722 8.74287 5.87991 8.54426C6.0126 8.34566 6.08342 8.11217 6.08342 7.87331C6.08312 7.55298 5.9557 7.24587 5.72913 7.01941C5.50257 6.79296 5.1954 6.66568 4.87507 6.66553V6.66553Z" fill="white"/>
<path d="M35.3501 34.6943H30.8186C30.7222 34.6943 30.6274 34.6698 30.5431 34.623C30.4588 34.5763 30.3878 34.5088 30.3368 34.427L27.8985 30.5181C27.8189 30.3902 27.7933 30.2358 27.8275 30.0891C27.8616 29.9423 27.9527 29.8151 28.0807 29.7355C28.2086 29.6558 28.363 29.6303 28.5097 29.6645C28.6565 29.6986 28.7837 29.7897 28.8633 29.9176L31.1336 33.5592H35.3524C35.5029 33.5592 35.6472 33.619 35.7537 33.7254C35.8601 33.8318 35.9199 33.9762 35.9199 34.1267C35.9199 34.2772 35.8601 34.4216 35.7537 34.528C35.6472 34.6345 35.5029 34.6943 35.3524 34.6943H35.3501Z" fill="white"/>
<path d="M37.1249 36.4696C36.6615 36.4696 36.2085 36.3322 35.8232 36.0748C35.4379 35.8174 35.1376 35.4514 34.9603 35.0233C34.783 34.5952 34.7366 34.1241 34.827 33.6697C34.9174 33.2152 35.1405 32.7977 35.4682 32.47C35.7958 32.1424 36.2133 31.9192 36.6678 31.8288C37.1223 31.7384 37.5934 31.7848 38.0215 31.9622C38.4496 32.1395 38.8155 32.4398 39.0729 32.8251C39.3304 33.2104 39.4678 33.6633 39.4678 34.1267C39.4671 34.7479 39.22 35.3434 38.7807 35.7826C38.3415 36.2218 37.746 36.4689 37.1249 36.4696V36.4696ZM37.1249 32.9189C36.886 32.9189 36.6525 32.9898 36.4539 33.1225C36.2552 33.2552 36.1004 33.4438 36.009 33.6645C35.9176 33.8852 35.8937 34.1281 35.9403 34.3624C35.9869 34.5966 36.1019 34.8119 36.2708 34.9808C36.4398 35.1497 36.655 35.2647 36.8893 35.3113C37.1235 35.3579 37.3664 35.334 37.5871 35.2426C37.8078 35.1512 37.9964 34.9964 38.1291 34.7977C38.2618 34.5991 38.3327 34.3656 38.3327 34.1267C38.3322 33.8065 38.2048 33.4996 37.9784 33.2732C37.752 33.0468 37.4451 32.9194 37.1249 32.9189V32.9189Z" fill="white"/>
<path d="M28.3785 12.3498C28.2773 12.3497 28.1779 12.3226 28.0907 12.2712C28.0035 12.2198 27.9316 12.146 27.8825 12.0575C27.8334 11.9689 27.8089 11.8689 27.8115 11.7677C27.814 11.6665 27.8436 11.5678 27.8972 11.4819L30.3332 7.57311C30.3842 7.49129 30.4552 7.42382 30.5395 7.37704C30.6238 7.33027 30.7186 7.30575 30.8151 7.30579H35.3488C35.4993 7.30579 35.6437 7.36558 35.7501 7.47202C35.8566 7.57846 35.9164 7.72283 35.9164 7.87335C35.9164 8.02388 35.8566 8.16824 35.7501 8.27468C35.6437 8.38112 35.4993 8.44092 35.3488 8.44092H31.1318L28.8615 12.0824C28.8104 12.1644 28.7392 12.232 28.6547 12.2788C28.5702 12.3256 28.4751 12.35 28.3785 12.3498V12.3498Z" fill="white"/>
<path d="M37.1249 10.2162C36.6615 10.2162 36.2085 10.0788 35.8232 9.82138C35.4379 9.56394 35.1376 9.19802 34.9603 8.76991C34.783 8.3418 34.7366 7.87072 34.827 7.41623C34.9174 6.96175 35.1405 6.54428 35.4682 6.21662C35.7958 5.88896 36.2133 5.66582 36.6678 5.57542C37.1223 5.48501 37.5934 5.53141 38.0215 5.70874C38.4496 5.88607 38.8155 6.18637 39.0729 6.57166C39.3304 6.95695 39.4678 7.40993 39.4678 7.87331C39.4669 8.49442 39.2198 9.08983 38.7806 9.52901C38.3414 9.9682 37.746 10.2153 37.1249 10.2162V10.2162ZM37.1249 6.66553C36.886 6.66553 36.6525 6.73637 36.4539 6.86908C36.2552 7.00179 36.1004 7.19042 36.009 7.41112C35.9176 7.63181 35.8937 7.87465 35.9403 8.10894C35.9869 8.34323 36.1019 8.55844 36.2708 8.72735C36.4398 8.89626 36.655 9.01129 36.8893 9.05789C37.1235 9.10449 37.3664 9.08058 37.5871 8.98916C37.8078 8.89775 37.9964 8.74294 38.1291 8.54432C38.2618 8.3457 38.3327 8.11219 38.3327 7.87331C38.3324 7.55308 38.205 7.24605 37.9786 7.01962C37.7521 6.79318 37.4451 6.66583 37.1249 6.66553V6.66553Z" fill="white"/>
</svg>
